<svg xmlns="http://www.w3.org/2000/svg" version="1.1" xmlns:xlink="http://www.w3.org/1999/xlink" xmlns:svgjs="http://svgjs.dev/svgjs" width="164" height="147"><svg width="164" height="147" viewBox="0 0 164 147" fill="none" xmlns="http://www.w3.org/2000/svg">
<path d="M146.626 114.585L147.182 114.029C147.182 114.029 145.841 113.725 144.653 114.029C144.653 114.029 145.186 113.09 145.538 112.988C145.538 112.988 143.111 111.517 137.827 112.988C137.827 112.988 138.636 111.111 138.889 110.756C138.889 110.756 134.364 109.715 130.165 111.162C130.165 111.162 130.709 110.034 130.735 109.628C130.735 109.628 127.123 108.676 121.898 111.076C121.898 111.076 122.555 109.285 122.623 108.743C122.623 108.743 117.07 108.879 113.707 111.365C113.707 111.365 114.313 109.589 114.286 109.132C114.286 109.132 109.814 109.411 106.804 111.565C106.843 111.507 107.475 110.553 107.462 110.173C107.462 110.173 103.542 111.237 99.1161 113.496C99.1161 113.496 99.3446 112.802 99.244 112.345C99.244 112.345 87.5782 117.411 82.8435 117.672C84.9881 116.027 87.471 114.33 90.3049 112.711C91.7011 111.913 93.0602 111.202 94.3732 110.569C94.288 110.435 93.7828 110.072 93.7828 110.072C98.5093 108.449 102.952 106.275 102.952 106.275C102.464 105.327 101.131 105.108 101.131 105.108C108.38 104.109 110.942 101.487 110.942 101.487C110.638 100.979 109.24 100.169 109.24 100.169C114.398 99.1716 118.978 96.3589 118.978 96.3589C118.573 95.7643 117.145 95.2564 117.145 95.2564C123.466 93.0493 125.995 90.9848 125.995 90.9848C125.776 90.6129 124.342 89.9372 124.342 89.9372C130.478 88.3806 132.837 86.2502 132.837 86.2502C132.4 85.3364 130.561 84.3382 130.561 84.3382C136.446 83.1896 139.411 80.4318 139.411 80.4318C138.029 79.518 136.638 78.5626 136.638 78.5626C144.047 76.1273 145.121 73.1599 145.121 73.1599C144.312 72.8045 142.243 72.0443 142.243 72.0443C147.57 68.8312 149.508 66.5802 149.508 66.5802C148.632 66.1074 146.98 65.5655 146.98 65.5655C150.064 63.5196 152.328 61.6427 152.328 61.6427C151.632 61.2368 150.823 60.7805 150.823 60.7805C153.783 57.9898 161.847 52.7637 161.847 52.7637C152.947 53.0171 144.856 59.1218 144.856 59.1218C144.922 57.8724 144.553 56.9081 144.553 56.9081C142.226 58.0062 137.904 62.3524 137.904 62.3524C137.952 60.7563 137.018 59.0045 137.018 59.0045C134.338 60.8309 130.671 65.5249 130.671 65.5249C130.545 64.0275 129.307 62.3524 129.307 62.3524C126.449 64.1043 123.482 69.6748 123.482 69.6748C123.28 68.3058 121.797 67.1891 121.797 67.1891C119.032 69.2185 115.814 75.1038 115.814 75.1038C115.78 74.2767 114.65 72.9734 114.65 72.9734C112.477 74.7165 109.914 80.0599 109.914 80.0599C109.796 79.0617 109.12 78.3004 109.12 78.3004C106.728 81.3961 103.592 88.3806 103.592 88.3806C103.34 87.3911 102.48 86.5541 102.48 86.5541C100.937 88.2292 97.4739 96.0419 97.4739 96.0419C97.4903 95.399 96.4462 94.7573 96.4462 94.7573C94.6761 96.8032 91.3895 103.247 91.3895 103.247C91.3392 103.01 91.0681 102.622 91.0681 102.622C89.0476 105.968 85.9797 112.967 82.5147 117.263C82.5159 117.218 82.5182 117.173 82.5197 117.127C82.5286 116.84 82.5399 116.553 82.5566 116.271C82.5585 116.24 82.5613 116.208 82.5633 116.176C82.5824 115.871 82.6048 115.568 82.6326 115.27C82.6333 115.263 82.6341 115.256 82.6348 115.249C83.453 106.495 87.8603 100.475 88.9427 96.8131C88.9448 96.8043 88.9481 96.7966 88.9503 96.7878C88.9853 96.6715 89.0137 96.5586 89.0411 96.4467C89.0454 96.4269 89.052 96.4072 89.0564 96.3885C89.0815 96.281 89.1001 96.1779 89.1187 96.0748C89.122 96.0528 89.1285 96.0298 89.1318 96.009C89.1515 95.885 89.1657 95.7654 89.1744 95.6481C88.1839 95.772 87.19 96.2415 87.1277 96.2701C90.8975 89.3909 91.2376 85.7149 91.2551 85.4922C91.2561 85.4845 91.2561 85.4812 91.2561 85.4812C90.6657 85.4725 89.3002 86.0977 89.3002 86.0977C92.5583 80.717 93.0798 76.8019 93.1093 76.5628C93.1104 76.5551 93.1104 76.5507 93.1104 76.5507C92.3528 76.5167 90.5991 77.1683 90.5991 77.1683C95.3868 69.2689 94.5974 66.1699 94.5974 66.1699C93.5358 66.1195 91.6017 67.0212 91.6017 67.0212C94.2814 63.7226 95.2851 57.8373 95.2851 57.8373C94.1218 57.7517 91.9799 58.7346 91.9799 58.7346C94.897 55.3351 95.0916 50.3164 95.0916 50.3164C93.8638 50.3284 92.0696 51.296 92.0335 51.3146C93.8124 49.4081 94.1272 45.3668 94.1819 44.1491C94.1917 43.9243 94.1928 43.7959 94.1928 43.7959C92.449 43.8464 91.1895 44.713 91.1895 44.713C93.5664 41.7544 93.0766 37.0857 93.0766 37.0857C91.442 37.4762 89.8567 38.4723 89.8567 38.4723C91.8629 34.5659 91.2868 30.4785 91.2868 30.4785C89.755 30.6551 88.56 31.4033 88.56 31.4033C90.5827 27.5639 89.3177 24.9092 89.3177 24.9092C88.3227 25.1286 86.5187 26.7861 86.5187 26.7861C87.9849 23.0487 87.0512 18.3646 87.0512 18.3646C86.3755 18.6344 85.5172 19.2487 84.9126 19.7215C85.2844 19.0217 85.608 18.1188 85.608 17.0954C85.608 8.52134 82 1.35147 82 1.35147C82 1.35147 78.3914 8.52134 78.3914 17.0954C78.3914 18.1188 78.7151 19.0217 79.0872 19.7215C78.4825 19.2487 77.6248 18.6344 76.9492 18.3646C76.9492 18.3646 76.0148 23.0487 77.4812 26.7861C77.4812 26.7861 75.6769 25.1286 74.6818 24.9092C74.6818 24.9092 73.4175 27.5639 75.4403 31.4033C75.4403 31.4033 74.2449 30.6551 72.7137 30.4785C72.7137 30.4785 72.1373 34.5659 74.1437 38.4723C74.1437 38.4723 72.558 37.4762 70.9235 37.0857C70.9235 37.0857 70.4341 41.7544 72.8107 44.713C72.8107 44.713 71.5507 43.8464 69.807 43.7959C69.807 43.7959 69.8082 43.9243 69.8184 44.1491C69.8731 45.3668 70.1873 49.4081 71.966 51.3146C71.9302 51.296 70.1365 50.3284 68.909 50.3164C68.909 50.3164 69.1031 55.3351 72.0198 58.7346C72.0198 58.7346 69.8778 57.7517 68.7148 57.8373C68.7148 57.8373 69.718 63.7226 72.3981 67.0212C72.3981 67.0212 70.4645 66.1195 69.4025 66.1699C69.4025 66.1699 68.6137 69.2689 73.4014 77.1683C73.4014 77.1683 71.6477 76.5167 70.8892 76.5507C70.8892 76.5507 70.8897 76.5551 70.8906 76.5628C70.92 76.8019 71.4413 80.717 74.6999 86.0977C74.6999 86.0977 73.3347 85.4725 72.7441 85.4812C72.7441 85.4812 72.7443 85.4845 72.7448 85.4922C72.7624 85.7149 73.1023 89.3909 76.8724 96.2701C76.8097 96.2415 75.8165 95.772 74.8254 95.6481C74.8341 95.7654 74.8486 95.885 74.8684 96.009C74.8719 96.0298 74.8778 96.0528 74.8816 96.0748C74.8994 96.1779 74.9188 96.281 74.9436 96.3885C74.9481 96.4072 74.9544 96.4269 74.959 96.4467C74.9862 96.5586 75.0152 96.6715 75.0493 96.7878C75.0516 96.7966 75.0547 96.8043 75.057 96.8131C76.1399 100.475 80.5465 106.495 81.3652 115.249C81.3659 115.256 81.3667 115.263 81.3674 115.27C81.3952 115.568 81.4176 115.871 81.4367 116.176C81.4387 116.208 81.4415 116.24 81.4434 116.271C81.4601 116.553 81.4715 116.84 81.4803 117.127C81.4816 117.173 81.484 117.218 81.4853 117.263C78.0207 112.967 74.9526 105.968 72.9321 102.622C72.9321 102.622 72.6611 103.01 72.6106 103.247C72.6106 103.247 69.3237 96.8032 67.5538 94.7573C67.5538 94.7573 66.51 95.399 66.5262 96.0419C66.5262 96.0419 63.0632 88.2292 61.52 86.5541C61.52 86.5541 60.6603 87.3911 60.4074 88.3806C60.4074 88.3806 57.2723 81.3961 54.8793 78.3004C54.8793 78.3004 54.2037 79.0617 54.0864 80.0599C54.0864 80.0599 51.5237 74.7165 49.3492 72.9734C49.3492 72.9734 48.2206 74.2767 48.1863 75.1038C48.1863 75.1038 44.968 69.2185 42.203 67.1891C42.203 67.1891 40.7203 68.3058 40.5181 69.6748C40.5181 69.6748 37.5507 64.1043 34.6927 62.3524C34.6927 62.3524 33.4547 64.0275 33.3293 65.5249C33.3293 65.5249 29.6621 60.8309 26.982 59.0045C26.982 59.0045 26.0475 60.7563 26.096 62.3524C26.096 62.3524 21.7735 58.0062 19.4473 56.9081C19.4473 56.9081 19.0771 57.8724 19.1439 59.1218C19.1439 59.1218 11.0531 53.0171 2.1531 52.7637C2.1531 52.7637 10.2177 57.9898 13.177 60.7805C13.177 60.7805 12.3679 61.2368 11.672 61.6427C11.672 61.6427 13.9354 63.5196 17.02 65.5655C17.02 65.5655 15.3676 66.1074 14.4917 66.5802C14.4917 66.5802 16.4295 68.8312 21.7573 72.0443C21.7573 72.0443 19.6881 72.8045 18.8789 73.1599C18.8789 73.1599 19.953 76.1273 27.3623 78.5626C27.3623 78.5626 25.9706 79.518 24.5891 80.4318C24.5891 80.4318 27.5544 83.1896 33.4385 84.3382C33.4385 84.3382 31.5998 85.3364 31.1629 86.2502C31.1629 86.2502 33.5215 88.3806 39.6584 89.9372C39.6584 89.9372 38.2242 90.6129 38.0058 90.9848C38.0058 90.9848 40.5342 93.0493 46.8552 95.2564C46.8552 95.2564 45.4271 95.7643 45.0226 96.3589C45.0226 96.3589 49.6021 99.1716 54.76 100.169C54.76 100.169 53.3623 100.979 53.0589 101.487C53.0589 101.487 55.6197 104.109 62.8691 105.108C62.8691 105.108 61.5362 105.327 61.0487 106.275C61.0487 106.275 65.4905 108.449 70.2176 110.072C70.2176 110.072 69.7119 110.435 69.6271 110.569C70.9397 111.202 72.299 111.913 73.6947 112.711C76.5285 114.33 79.0125 116.027 81.1566 117.672C76.4214 117.411 64.7563 112.345 64.7563 112.345C64.6551 112.802 64.8838 113.496 64.8838 113.496C60.4581 111.237 56.538 110.173 56.538 110.173C56.5259 110.553 57.1569 111.507 57.1953 111.565C54.1856 109.411 49.7133 109.132 49.7133 109.132C49.6871 109.589 50.2939 111.365 50.2939 111.365C46.93 108.879 41.3777 108.743 41.3777 108.743C41.4444 109.285 42.1019 111.076 42.1019 111.076C36.8771 108.676 33.2646 109.628 33.2646 109.628C33.2909 110.034 33.8349 111.162 33.8349 111.162C29.6358 109.715 25.1109 110.756 25.1109 110.756C25.3638 111.111 26.1729 112.988 26.1729 112.988C20.8896 111.517 18.4622 112.988 18.4622 112.988C18.8143 113.09 19.3462 114.029 19.3462 114.029C18.1588 113.725 16.8178 114.029 16.8178 114.029L17.374 114.585C11.4839 115.6 7.74189 117.885 7.74189 117.885C11.1279 118.746 16.1605 119.026 16.1605 119.026C15.5537 119.482 15.4524 120.268 15.4524 120.268C17.5763 120.471 22.7585 120.167 22.7585 120.167C21.824 120.954 21.2415 122.602 21.2415 122.602C25.2122 123.44 30.9262 122.222 30.9262 122.222C30.1678 123.237 29.9149 124.607 29.9149 124.607C33.3778 125.037 39.1689 122.96 39.1689 122.96C38.4609 124.177 37.7793 125.572 37.7793 125.572C41.2726 126.372 46.6913 124.077 46.837 124.016C46.3658 124.964 46.1129 125.892 46.1129 125.892C48.3217 125.758 55.7047 122.815 55.7047 122.815C55.4356 123.982 55.7047 124.658 55.7047 124.658C57.2723 124.286 63.8622 121.445 63.8622 121.445C63.7106 122.003 63.7956 122.459 63.7956 122.459C65.8243 121.91 75.1359 118.967 81.1657 117.986C76.3151 120.462 67.3321 122.995 64.4024 124.302C64.7826 124.38 66.8296 124.505 66.8296 124.505C64.2633 125.216 60.6097 128.069 60.6097 128.069C60.9799 128.146 62.1267 127.879 62.1267 127.879C59.7621 129.122 58.2958 131.676 58.2958 131.676C58.676 131.676 59.7743 131.57 59.7743 131.57C57.3107 132.904 56.4631 135.223 56.4631 135.223C56.8972 135.427 57.171 135.465 57.171 135.465C55.9617 136.767 55.7047 137.823 55.7047 137.823C56.095 137.717 56.4409 137.688 56.4631 137.672C55.1147 141.705 55.1322 144.734 55.1322 144.734C55.9238 143.346 61.5705 136.898 62.772 135.988C63.9736 135.079 64.4367 134.248 64.4367 134.248C64.4529 135.363 65.1952 135.988 65.1952 135.988C66.2511 135.244 69.3034 131.596 69.5481 131.063C69.6371 132.054 70.6384 132.725 70.6384 132.725C72.8897 130.364 76.415 124.945 76.7207 124.371C77.2298 125.166 77.55 126.299 77.55 126.299C78.7272 124.48 79.4149 122.229 80.0642 120.954C80.6003 119.902 81.0594 118.987 81.6056 118.133C81.5651 121.922 81.3952 136.426 81.1646 139.727C81.1646 139.727 81.2799 139.997 82 139.997C82.7201 139.997 82.8354 139.727 82.8354 139.727C82.6047 136.426 82.4349 121.922 82.3944 118.133C82.9403 118.987 83.3995 119.902 83.9363 120.954C84.5846 122.229 85.2723 124.48 86.4499 126.299C86.4499 126.299 86.7702 125.166 87.2797 124.371C87.5847 124.945 91.1107 130.364 93.3619 132.725C93.3619 132.725 94.3634 132.054 94.452 131.063C94.6969 131.596 97.7484 135.244 98.8045 135.988C98.8045 135.988 99.5469 135.363 99.5633 134.248C99.5633 134.248 100.027 135.079 101.228 135.988C102.43 136.898 108.076 143.346 108.868 144.734C108.868 144.734 108.885 141.705 107.537 137.672C107.559 137.688 107.905 137.717 108.296 137.823C108.296 137.823 108.039 136.767 106.828 135.465C106.828 135.465 107.103 135.427 107.537 135.223C107.537 135.223 106.69 132.904 104.225 131.57C104.225 131.57 105.324 131.676 105.705 131.676C105.705 131.676 104.237 129.122 101.874 127.879C101.874 127.879 103.02 128.146 103.39 128.069C103.39 128.069 99.7371 125.216 97.17 124.505C97.17 124.505 99.2178 124.38 99.5972 124.302C96.6682 122.995 87.6853 120.462 82.8344 117.986C88.8639 118.967 98.1759 121.91 100.204 122.459C100.204 122.459 100.289 122.003 100.137 121.445C100.137 121.445 106.728 124.286 108.296 124.658C108.296 124.658 108.565 123.982 108.296 122.815C108.296 122.815 115.678 125.758 117.888 125.892C117.888 125.892 117.634 124.964 117.163 124.016C117.308 124.077 122.728 126.372 126.221 125.572C126.221 125.572 125.539 124.177 124.831 122.96C124.831 122.96 130.622 125.037 134.085 124.607C134.085 124.607 133.833 123.237 133.074 122.222C133.074 122.222 138.788 123.44 142.759 122.602C142.759 122.602 142.176 120.954 141.241 120.167C141.241 120.167 146.424 120.471 148.548 120.268C148.548 120.268 148.446 119.482 147.839 119.026C147.839 119.026 152.872 118.746 156.258 117.885C156.258 117.885 152.516 115.6 146.626 114.585Z" fill="#73AD4E"></path>
<path d="M150.408 60.3362L149.805 60.9044L150.526 61.3103C150.526 61.3114 150.845 61.4913 151.253 61.725C150.361 62.4271 148.676 63.7105 146.646 65.0576L145.597 65.7531L146.791 66.1447C146.803 66.148 147.681 66.4376 148.468 66.7667C147.561 67.6224 145.526 69.3534 141.93 71.5221L140.843 72.177L142.034 72.6158C142.05 72.6213 143.315 73.0864 144.236 73.4528C143.558 74.3545 141.592 76.2929 136.449 77.9845L135.28 78.3684L136.295 79.065C136.307 79.0727 137.268 79.733 138.378 80.4746C137.246 81.2951 134.582 82.9329 130.446 83.7403L128.786 84.065L130.272 84.8735C130.771 85.1456 131.553 85.6589 131.999 86.1241C131.084 86.7636 128.661 88.2138 124.193 89.347L122.548 89.765L124.083 90.489C124.396 90.636 124.718 90.8071 124.975 90.9596C123.885 91.6726 121.343 93.1459 116.945 94.6816L115.313 95.2521L116.942 95.8313C117.224 95.9311 117.595 96.0956 117.905 96.2701C116.414 97.0862 112.906 98.8403 109.126 99.5709L107.53 99.878L108.936 100.695C109.305 100.909 109.736 101.198 110.042 101.438C109.033 102.173 106.31 103.78 101.048 104.505L97.1645 105.04L101.031 105.708C101.215 105.74 101.615 105.854 101.952 106.076C100.504 106.753 97.1066 108.286 93.5861 109.496L92.4708 109.879L93.2537 110.441C92.1614 110.988 91.0725 111.572 90.0054 112.182C88.8071 112.866 87.6296 113.595 86.4728 114.354C90.8811 110.036 95.3376 105.761 99.8235 101.522C102.756 98.7514 105.708 96.0024 108.676 93.2709C111.644 90.5383 114.631 87.8266 117.643 85.1434C119.144 83.7963 120.661 82.4689 122.173 81.1339C123.696 79.812 125.213 78.4825 126.749 77.176C128.276 75.8585 129.825 74.5663 131.367 73.2663C132.922 71.9829 134.472 70.6928 136.046 69.4324C139.188 66.9038 142.364 64.4159 145.624 62.0431C148.889 59.678 152.22 57.3952 155.728 55.402C152.196 57.3513 148.832 59.5935 145.536 61.9192C142.243 64.2535 139.033 66.702 135.858 69.1932C134.266 70.435 132.699 71.7075 131.127 72.9723C129.567 74.2536 128.001 75.5272 126.456 76.826C124.902 78.115 123.368 79.427 121.827 80.7302C120.297 82.0466 118.761 83.3575 117.243 84.6859C114.194 87.3329 111.171 90.0096 108.167 92.7071C105.162 95.4034 102.173 98.1174 99.2036 100.853C94.757 104.95 90.341 109.078 85.9655 113.255C87.2021 111.177 88.3468 108.984 89.3505 107.058C89.9332 105.941 90.4613 104.927 90.9424 104.06L91.1523 105.048L91.9297 103.524C91.9603 103.465 94.7887 97.9331 96.549 95.6009C96.7305 95.7698 96.8639 95.9399 96.8671 96.0265L96.7906 99.0827L98.0283 96.2898C98.88 94.3668 101.162 89.4677 102.499 87.5205C102.698 87.797 102.909 88.1557 103.005 88.5319L103.435 90.2158L104.145 88.6307C104.175 88.567 106.848 82.6324 109.088 79.3787C109.19 79.597 109.279 79.8548 109.31 80.1312L109.555 82.2111L110.461 80.3243C110.484 80.276 112.635 75.8179 114.575 73.8631C114.892 74.3085 115.196 74.8339 115.208 75.1301L115.299 77.312L116.346 75.3967C116.376 75.3418 119.241 70.1344 121.781 67.9778C122.208 68.3859 122.779 69.0693 122.882 69.7648L123.151 71.588L124.017 69.9622C124.044 69.9118 126.604 65.1421 129.142 63.2048C129.487 63.7665 129.994 64.723 130.066 65.5765L130.195 67.1199L131.149 65.9001C131.181 65.8584 134.276 61.9126 136.776 59.938C137.021 60.5402 137.324 61.4727 137.298 62.3349L137.251 63.8718L138.334 62.7836C138.372 62.7441 141.872 59.2359 144.164 57.8164C144.227 58.1576 144.276 58.6008 144.25 59.09L144.181 60.3921L145.221 59.6089C145.293 59.5541 151.871 54.6571 159.517 53.5744C156.917 55.3175 152.48 58.3825 150.408 60.3362ZM99.3917 114.038C102.216 112.596 104.854 111.642 106.349 111.153C106.332 111.178 106.315 111.204 106.297 111.232L104.517 113.951L107.158 112.061C109.258 110.557 112.167 110.009 113.544 109.824C113.437 110.224 113.281 110.729 113.133 111.167L112.503 113.01L114.066 111.855C116.492 110.061 120.2 109.548 121.826 109.404C121.681 109.872 121.484 110.445 121.328 110.867L120.825 112.24L122.15 111.63C125.869 109.921 128.75 109.98 129.96 110.116C129.867 110.354 129.745 110.635 129.619 110.897L128.985 112.212L130.363 111.738C133.332 110.714 136.52 110.997 137.963 111.21C137.689 111.781 137.392 112.466 137.27 112.747L136.766 113.916L137.99 113.575C141.277 112.659 143.397 112.935 144.445 113.222C144.325 113.391 144.218 113.566 144.126 113.729L143.421 114.974L144.804 114.619C145.149 114.532 145.516 114.503 145.848 114.503L145.365 114.987L146.523 115.185C150.1 115.802 152.886 116.906 154.473 117.647C151.391 118.213 147.848 118.416 147.806 118.418L146.144 118.51L147.475 119.513C147.553 119.571 147.617 119.639 147.673 119.711C145.329 119.795 141.322 119.561 141.277 119.559L139.449 119.451L140.851 120.633C141.277 120.993 141.65 121.622 141.898 122.135C138.159 122.666 133.252 121.638 133.2 121.627L131.619 121.29L132.589 122.588C132.938 123.056 133.169 123.622 133.31 124.054C129.987 124.147 125.088 122.405 125.036 122.386L123.469 121.824L124.307 123.266C124.676 123.902 125.042 124.593 125.303 125.099C122.739 125.33 119.219 124.219 117.397 123.454L115.892 122.826L116.62 124.288C116.765 124.58 116.888 124.872 116.989 125.131C114.685 124.612 110.265 122.944 108.52 122.249L107.443 121.82L107.704 122.952C107.791 123.326 107.813 123.638 107.807 123.877C106.08 123.298 102.346 121.734 100.377 120.885L99.2211 120.387L99.5524 121.606C99.5557 121.618 99.5589 121.631 99.5622 121.644C99.2298 121.548 98.8373 121.432 98.3989 121.302C95.5289 120.455 90.7434 119.045 86.4652 118.084C90.6122 117.906 94.7614 117.749 98.9106 117.607C104.541 117.417 110.173 117.265 115.806 117.153C121.44 117.039 127.074 116.992 132.708 117.021L136.932 117.066L141.157 117.172C142.564 117.22 143.97 117.298 145.378 117.36L145.905 117.385L146.432 117.425L147.485 117.509L149.592 117.673L146.437 117.369L145.911 117.318L145.383 117.284C143.977 117.197 142.571 117.094 141.164 117.021L136.939 116.837L132.712 116.717C127.076 116.586 121.438 116.532 115.8 116.544C110.162 116.555 104.525 116.605 98.8876 116.694C95.5847 116.747 92.2817 116.811 88.9798 116.887C92.7376 115.693 96.748 114.059 98.5399 113.306L98.0775 114.709L99.3917 114.038ZM93.9807 122.921C95.0292 123.277 96.0132 123.61 96.8759 123.914L93.4997 124.121L97.0093 125.092C98.1912 125.42 99.6453 126.246 100.826 127.01L97.3941 126.209L101.591 128.418C102.863 129.086 103.869 130.183 104.488 130.983C104.407 130.976 104.337 130.969 104.283 130.964L101.297 130.677L103.938 132.106C105.444 132.921 106.298 134.155 106.694 134.868L105.589 135.022L106.385 135.88C106.554 136.062 106.703 136.239 106.834 136.408L106.358 136.062L106.962 137.865C107.596 139.762 107.921 141.438 108.087 142.659C106.092 140.179 102.574 136.245 101.594 135.503C100.525 134.694 100.096 133.955 100.094 133.95L98.9893 131.968L98.9565 134.239C98.951 134.61 98.8395 134.908 98.7193 135.123C97.5144 133.999 95.2271 131.253 95.003 130.809L94.0529 128.733L93.8474 131.008C93.8178 131.338 93.6134 131.648 93.4067 131.876C91.1993 129.388 88.1008 124.622 87.8143 124.084L87.3278 123.171L86.7691 124.042C86.6018 124.302 86.4542 124.593 86.3296 124.872C85.8999 124.037 85.5424 123.166 85.2166 122.368C84.9586 121.741 84.7158 121.147 84.4764 120.677L84.378 120.485C84.2326 120.2 84.0926 119.925 83.9549 119.66C84.5169 119.973 85.0777 120.295 85.631 120.621C86.7899 121.304 87.9357 122.014 89.064 122.75C91.3229 124.219 93.5204 125.788 95.6317 127.467C97.744 129.147 99.7699 130.939 101.663 132.869C102.612 133.831 103.512 134.84 104.385 135.873C105.25 136.915 106.062 137.999 106.829 139.118C106.104 137.972 105.331 136.855 104.503 135.779C103.668 134.709 102.801 133.662 101.882 132.659C100.053 130.649 98.0818 128.769 96.0176 126.998C93.9534 125.226 91.7985 123.562 89.5735 121.993C88.9656 121.563 88.3501 121.143 87.7313 120.728C89.8239 121.512 92.027 122.26 93.9807 122.921ZM81.7943 139.377C81.871 137.996 81.9405 135.42 82 132.511C82.0595 135.42 82.129 137.996 82.2057 139.377C82.0978 139.389 81.9022 139.389 81.7943 139.377ZM79.6218 120.485L79.5239 120.677C79.2842 121.147 79.0412 121.741 78.784 122.368C78.4573 123.166 78.1005 124.037 77.6703 124.872C77.5457 124.593 77.3982 124.302 77.231 124.042L76.6725 123.171L76.1857 124.084C75.8996 124.622 72.8006 129.388 70.5934 131.875C70.3863 131.647 70.182 131.338 70.1524 131.008L69.9494 128.73L68.9983 130.805C68.773 131.253 66.4855 133.999 65.2811 135.123C65.1606 134.908 65.0488 134.61 65.0435 134.239L65.0096 132.021L63.9085 133.947C63.9044 133.955 63.4748 134.694 62.4065 135.503C61.4255 136.245 57.9083 140.179 55.9134 142.659C56.0797 141.438 56.4045 139.762 57.0383 137.865L57.6416 136.062L57.1664 136.408C57.2969 136.239 57.4456 136.062 57.615 135.88L58.3794 135.047L57.3028 134.87C57.6943 134.158 58.5443 132.928 60.0624 132.106L62.7026 130.677L59.7166 130.964C59.6633 130.969 59.593 130.976 59.5119 130.983C60.131 130.183 61.1376 129.086 62.4087 128.418L66.6062 126.209L63.1737 127.01C64.3549 126.246 65.8086 125.42 66.9909 125.092L70.4999 124.121L67.1243 123.914C67.9871 123.61 68.9704 123.277 70.0191 122.921C71.9729 122.26 74.1759 121.512 76.2687 120.728C75.6496 121.143 75.0346 121.563 74.4259 121.993C72.2019 123.562 70.0461 125.226 67.9822 126.998C65.9185 128.769 63.9468 130.649 62.1172 132.659C61.1993 133.662 60.3325 134.709 59.4966 135.779C58.6688 136.855 57.8958 137.972 57.1711 139.118C57.9382 137.999 58.7506 136.915 59.6149 135.873C60.4875 134.84 61.388 133.831 62.3376 132.869C64.2304 130.939 66.2563 129.147 68.368 127.467C70.4797 125.788 72.6768 124.219 74.9355 122.75C76.0646 122.014 77.2097 121.304 78.3688 120.621C78.9227 120.295 79.4828 119.973 80.0452 119.66C79.9071 119.925 79.7674 120.2 79.6218 120.485ZM65.6008 121.302C65.1622 121.432 64.7697 121.548 64.4375 121.644C64.4408 121.631 64.4442 121.618 64.4477 121.606L64.7788 120.387L63.6227 120.885C61.6545 121.734 57.921 123.298 56.1933 123.877C56.1883 123.638 56.2097 123.326 56.2958 122.952L56.5568 121.82L55.4807 122.249C53.7356 122.944 49.3149 124.612 47.0109 125.131C47.1114 124.872 47.2351 124.58 47.38 124.288L48.1031 122.826L46.5972 123.458C44.78 124.22 41.2613 125.33 38.6976 125.099C38.9578 124.593 39.3234 123.902 39.6931 123.266L40.5316 121.823L38.9644 122.386C38.9118 122.405 34.0172 124.148 30.6903 124.054C30.8307 123.622 31.0619 123.056 31.4117 122.588L32.3813 121.291L30.8004 121.627C30.748 121.638 25.8416 122.666 22.1004 122.135C22.3489 121.622 22.7202 120.994 23.1488 120.633L24.551 119.451L22.7231 119.559C22.6777 119.561 18.6714 119.794 16.3272 119.711C16.3821 119.639 16.4472 119.571 16.5245 119.513L17.8564 118.51L16.194 118.418C16.152 118.416 12.6078 118.213 9.52567 117.647C11.1086 116.906 13.8908 115.803 17.4768 115.185L18.6346 114.987L18.1512 114.503C18.4842 114.503 18.8508 114.53 19.196 114.619L20.5787 114.974L19.8738 113.729C19.7817 113.566 19.6742 113.391 19.5554 113.222C20.605 112.935 22.7246 112.66 26.0106 113.575L27.2336 113.916L26.7298 112.747C26.6089 112.466 26.3104 111.781 26.0366 111.209C27.4781 110.995 30.6608 110.712 33.6378 111.738L35.015 112.212L34.3812 110.897C34.2549 110.635 34.1331 110.354 34.04 110.116C35.2509 109.98 38.1314 109.922 41.8492 111.63L43.1749 112.24L42.6714 110.867C42.5167 110.444 42.3186 109.872 42.1735 109.404C43.7981 109.546 47.5031 110.058 49.934 111.855L51.4974 113.01L50.8679 111.167C50.7181 110.729 50.5627 110.224 50.4556 109.824C51.8319 110.009 54.7422 110.557 56.8428 112.061L59.4884 113.953L57.6995 111.226C57.6828 111.201 57.6669 111.177 57.6511 111.152C59.1463 111.642 61.7841 112.596 64.6086 114.038L65.9144 114.704L65.4603 113.306C67.2521 114.059 71.2627 115.693 75.0206 116.887C71.7179 116.811 68.4156 116.747 65.1124 116.694C59.4753 116.605 53.8376 116.555 48.1999 116.544C42.5624 116.532 36.9241 116.586 31.2879 116.717L27.0614 116.837L22.8369 117.021C21.4294 117.094 20.0233 117.197 18.6168 117.284L18.0896 117.318L17.5634 117.369L14.4074 117.673L16.5145 117.509L17.5677 117.425L18.0942 117.385L18.6219 117.36C20.0294 117.298 21.4358 117.22 22.8433 117.172L27.0674 117.066L31.2927 117.021C36.9267 116.992 42.5606 117.039 48.1938 117.153C53.8268 117.265 59.459 117.417 65.0898 117.607C69.2384 117.749 73.3877 117.906 77.5343 118.084C73.2565 119.045 68.4708 120.455 65.6008 121.302ZM70.7459 110.441L71.5283 109.879L70.4142 109.496C66.8936 108.286 63.4966 106.753 62.0473 106.076C62.3843 105.854 62.7836 105.74 62.9673 105.708L66.9446 105.055L62.9516 104.505C57.6882 103.78 54.9655 102.172 53.9586 101.439C54.2642 101.199 54.6947 100.91 55.0642 100.695L56.4688 99.878L54.8748 99.5709C51.0925 98.8392 47.585 97.0851 46.094 96.2701C46.3885 96.1033 46.745 95.9421 47.0577 95.8313L48.6869 95.2521L47.0547 94.6816C42.6567 93.1459 40.1148 91.6726 39.0251 90.9596C39.2828 90.8071 39.6035 90.636 39.9165 90.489L41.4515 89.765L39.8071 89.347C35.3372 88.2138 32.9146 86.7625 32.0006 86.1241C32.4472 85.6589 33.229 85.1456 33.7276 84.8735L35.2138 84.065L33.5543 83.7403C29.4178 82.9329 26.7529 81.294 25.6227 80.4746C26.7317 79.733 27.6935 79.0727 27.7051 79.065L28.7196 78.3684L27.5512 77.9845C22.4021 76.2918 20.4374 74.3491 19.7636 73.4528C20.6842 73.0875 21.95 72.6213 21.9662 72.6158L23.157 72.177L22.0699 71.5221C18.4736 69.3534 16.4395 67.6224 15.5318 66.7667C16.3187 66.4376 17.1968 66.148 17.2086 66.1447L18.4026 65.7531L17.3547 65.0576C15.3238 63.7105 13.639 62.4271 12.7466 61.725C13.1552 61.4913 13.4737 61.3114 13.4745 61.3103L14.1946 60.9044L13.5925 60.3362C11.5209 58.3825 7.08261 55.3175 4.48289 53.5744C12.129 54.6571 18.7073 59.5541 18.7794 59.6089L19.8195 60.3921L19.7499 59.09C19.7237 58.6008 19.7733 58.1576 19.8362 57.8164C22.1276 59.2359 25.6279 62.7441 25.6665 62.7836L26.7494 63.8718L26.7026 62.3349C26.6766 61.4771 26.9803 60.5424 27.2242 59.9391C29.7231 61.9126 32.8183 65.8584 32.8517 65.9001L33.8046 67.1199L33.9339 65.5765C34.0054 64.7219 34.5128 63.7665 34.8575 63.2048C37.3943 65.1399 39.9556 69.9118 39.9829 69.9622L40.8491 71.588L41.1183 69.7648C41.2203 69.0737 41.7927 68.3881 42.2197 67.9778C44.7594 70.1355 47.6242 75.3418 47.6542 75.3967L48.702 77.312L48.7924 75.1301C48.8047 74.8339 49.1081 74.3085 49.4257 73.8631C51.365 75.8179 53.5164 80.276 53.5397 80.3243L54.4448 82.2111L54.6892 80.1312C54.7214 79.8548 54.8103 79.597 54.9119 79.3787C57.1516 82.6324 59.8253 88.567 59.8542 88.6307L60.5655 90.2158L60.9953 88.5319C61.0913 88.1557 61.3022 87.797 61.501 87.5205C62.8377 89.4677 65.1196 94.3668 65.9717 96.2898L67.2098 99.0838L67.1329 96.0276C67.1361 95.9453 67.2637 95.7753 67.451 95.5998C69.2106 97.932 72.0401 103.465 72.0703 103.524L72.8468 105.051L73.058 104.06C73.5381 104.927 74.0666 105.941 74.6493 107.058C75.6535 108.984 76.7975 111.177 78.0344 113.255C73.6589 109.078 69.243 104.95 64.7962 100.853C61.8269 98.1174 58.8377 95.4034 55.8329 92.7071C52.8292 90.0096 49.8059 87.3329 46.758 84.6859C45.2386 83.3575 43.7028 82.0466 42.1729 80.7302C40.6319 79.427 39.0977 78.115 37.5438 76.826C35.999 75.5272 34.4332 74.2536 32.8736 72.9723C31.301 71.7075 29.7337 70.435 28.1426 69.1932C24.9668 66.702 21.7571 64.2535 18.4638 61.9192C15.1675 59.5935 11.8041 57.3513 8.27183 55.402C11.7792 57.3952 15.1112 59.678 18.3754 62.0431C21.6365 64.4159 24.8125 66.9038 27.954 69.4324C29.5279 70.6928 31.078 71.9829 32.6329 73.2663C34.1753 74.5663 35.7234 75.8585 37.2505 77.176C38.7867 78.4825 40.3032 79.812 41.8263 81.1339C43.3385 82.4689 44.8562 83.7963 46.3577 85.1434C49.3695 87.8266 52.3566 90.5383 55.3239 93.2709C58.2922 96.0024 61.2445 98.7514 64.1766 101.522C68.6626 105.761 73.119 110.036 77.5274 114.355C76.3706 113.595 75.1928 112.866 73.9948 112.182C72.928 111.572 71.8386 110.988 70.7459 110.441ZM77.3546 100.627C76.606 99.0696 75.9593 97.7236 75.6381 96.6375L75.6318 96.6178C75.6134 96.5553 75.5969 96.4938 75.5813 96.4335C76.0617 96.575 76.4631 96.7516 76.6228 96.8251L78.2805 97.5755L77.4042 95.9761C74.6562 90.9618 73.7624 87.6928 73.4781 86.2656C73.793 86.3731 74.1483 86.5146 74.4482 86.6517L76.2424 87.4723L75.2186 85.7818C72.815 81.8129 71.932 78.6591 71.6326 77.2637C72.141 77.3822 72.7607 77.5797 73.1909 77.7387L74.8254 78.3454L73.9199 76.8513C70.4312 71.0965 69.9832 67.9701 69.9634 66.8292C70.6653 66.962 71.6017 67.3218 72.1428 67.573L74.5338 68.6853L72.8685 66.6362C70.8843 64.1943 69.839 60.1859 69.4699 58.5097C70.3066 58.6743 71.3449 59.0944 71.7679 59.2886L74.2842 60.4404L72.4798 58.3375C70.3801 55.8901 69.7586 52.495 69.582 51.0217C70.3926 51.217 71.3155 51.6547 71.6782 51.851L74.9418 53.615L72.4091 50.8989C71.1703 49.5704 70.5878 46.7698 70.4433 44.4662C71.6333 44.6581 72.4597 45.2099 72.4677 45.2154L75.8759 47.5586L73.2833 44.3312C71.6345 42.2777 71.471 39.2643 71.4923 37.8865C72.7356 38.3121 73.8093 38.9802 73.822 38.9889L75.6942 40.1616L74.6833 38.1936C73.2426 35.3886 73.2002 32.4465 73.2636 31.1905C74.3286 31.4351 75.1107 31.9145 75.119 31.92L77.0292 33.1168L75.9769 31.1192C74.6305 28.5632 74.8312 26.6139 75.0526 25.7144C75.701 26.072 76.5679 26.7729 77.0716 27.2359L79.0065 29.0119L78.046 26.5634C77.015 23.9361 77.2383 20.756 77.4218 19.2926C77.8008 19.523 78.2404 19.8312 78.7141 20.202L80.9665 21.9638L79.6227 19.4352C79.2083 18.6564 78.9983 17.8687 78.9983 17.0954C78.9983 10.7987 81.0074 5.21285 82 2.83788C82.9927 5.21285 85.0012 10.7987 85.0012 17.0954C85.0012 17.8687 84.7913 18.6564 84.3769 19.4352L83.0332 21.9638L85.2855 20.202C85.76 19.8312 86.1995 19.5219 86.5789 19.2915C86.7626 20.7538 86.9878 23.9296 85.9535 26.5634L84.9925 29.0152L86.9287 27.2359C87.4634 26.7433 88.3173 26.0654 88.947 25.7165C89.169 26.6183 89.368 28.5665 88.0232 31.1192L86.9801 33.0992L88.8803 31.9211C88.8891 31.9145 89.6719 31.4351 90.7368 31.1905C90.8002 32.4465 90.7576 35.3886 89.3166 38.1936L88.3063 40.1616L90.1781 38.9889C90.1902 38.9802 91.2649 38.3121 92.508 37.8865C92.5288 39.2643 92.3648 42.2788 90.7171 44.3312L88.1238 47.5586L91.5328 45.2154C91.5415 45.2088 92.3571 44.6559 93.5565 44.4662C93.4122 46.7687 92.8295 49.5704 91.5907 50.8989L89.0586 53.615L92.3222 51.851C92.684 51.6547 93.6079 51.217 94.4192 51.0217C94.2442 52.4928 93.6254 55.8836 91.5207 58.3375L89.7135 60.4437L92.2325 59.2886C92.8021 59.0264 93.7675 58.6633 94.5296 58.5119C94.1611 60.1892 93.1181 64.1921 91.1315 66.6362L89.4664 68.6853L91.8575 67.573C92.3976 67.3218 93.3335 66.9631 94.0354 66.8292C94.0157 67.9789 93.5642 71.1042 90.0797 76.8513L89.1745 78.3454L90.809 77.7387C91.2398 77.5797 91.8586 77.3822 92.367 77.2637C92.0674 78.6602 91.1851 81.8129 88.7819 85.7818L87.7564 87.4734L89.5517 86.6517C89.8512 86.5146 90.2066 86.3731 90.5214 86.2656C90.2372 87.6949 89.3428 90.9629 86.5953 95.9761L85.7206 97.5864L87.3901 96.8185C87.541 96.7494 87.9401 96.575 88.419 96.4335C88.4037 96.4927 88.3873 96.5531 88.3698 96.6112L88.361 96.6397C88.0407 97.7236 87.3934 99.0696 86.6456 100.627C85.2844 103.459 83.5263 107.128 82.5772 111.625L82 20.9008L81.4227 111.625C80.4741 107.128 78.7152 103.459 77.3546 100.627ZM82.5979 115.246L82.6349 115.249L82.5979 115.247V115.246ZM164 52.0935L161.83 52.1549C154.497 52.3644 147.814 56.375 145.418 57.9843C145.323 57.2274 145.13 56.7195 145.119 56.6887L144.884 56.0788L144.294 56.3574C142.541 57.1846 139.797 59.6857 138.381 61.0383C138.125 59.8009 137.584 58.7741 137.553 58.7171L137.235 58.1203L136.677 58.501C134.679 59.8623 132.21 62.6936 130.973 64.1855C130.547 63.0172 129.836 62.0453 129.795 61.9905L129.465 61.544L128.991 61.8336C126.805 63.173 124.625 66.5166 123.581 68.2751C123.02 67.3569 122.21 66.7382 122.161 66.702L121.802 66.431L121.439 66.6976C119.321 68.252 117.014 71.86 115.922 73.6985C115.601 73.1577 115.225 72.7091 115.108 72.5741L114.727 72.1332L114.272 72.4973C112.672 73.7797 110.93 76.7986 110.012 78.5275C109.796 78.149 109.59 77.9143 109.574 77.8956L109.088 77.3493L108.641 77.9274C106.806 80.3013 104.592 84.811 103.583 86.9534C103.254 86.463 102.925 86.1405 102.902 86.1175L102.456 85.6831L102.034 86.1416C100.78 87.503 98.4175 92.5085 97.3996 94.7299C97.1306 94.4732 96.8617 94.2988 96.7633 94.2384L96.3249 93.9686L95.9881 94.358C94.5974 95.9651 92.3659 100.079 91.3622 101.983L91.0309 101.508L90.5488 102.307C89.8884 103.399 89.1417 104.833 88.2757 106.494C86.8347 109.257 85.1029 112.579 83.2431 115.266C83.8051 109.344 86.0781 104.613 87.7389 101.156C88.5097 99.5511 89.1766 98.1634 89.5232 96.9897L89.5331 96.959C89.5702 96.8328 89.6019 96.711 89.6337 96.5805C89.638 96.5619 89.6435 96.5421 89.6468 96.5267C89.6752 96.4083 89.696 96.2942 89.7178 96.1702C89.7233 96.1494 89.7266 96.1274 89.731 96.1055C89.7539 95.964 89.7703 95.8258 89.7802 95.6941L89.8348 94.9526L89.099 95.0447C88.8607 95.0743 88.6223 95.1215 88.396 95.1775C91.4934 89.1627 91.8302 85.9134 91.8597 85.5416L91.8968 84.8812L91.2638 84.8724C91.0943 84.8691 90.879 84.9042 90.657 84.958C93.199 80.3024 93.6637 77.0279 93.7118 76.6406L93.7796 75.9726L93.1378 75.943C92.8054 75.9276 92.3593 76.0088 91.9176 76.1185C95.8941 69.0824 95.2184 66.148 95.1856 66.0197L95.0741 65.5842L94.6269 65.5622C94.1983 65.5414 93.6746 65.6434 93.1717 65.786C95.0992 62.4325 95.8471 58.151 95.8831 57.9404L95.9958 57.2789L95.3299 57.2307C94.827 57.1934 94.1994 57.3151 93.609 57.4841C95.5234 54.2172 95.6907 50.5215 95.6973 50.3394L95.7224 49.701L95.085 49.7075C94.6127 49.7119 94.0846 49.8326 93.5893 49.9917C94.5077 47.9513 94.733 45.392 94.7876 44.1766C94.7986 43.9385 94.7997 43.8025 94.7997 43.8025L94.8062 43.1684L94.1754 43.1871C93.6309 43.2024 93.1301 43.2902 92.6917 43.4076C94.0223 40.5028 93.6976 37.1899 93.6801 37.022L93.6079 36.3331L92.9366 36.4933C92.2806 36.6502 91.6388 36.8948 91.0922 37.1394C92.3276 33.6806 91.9089 30.5444 91.887 30.393L91.8039 29.8061L91.2168 29.873C90.68 29.9355 90.1825 30.0606 89.7539 30.2032C90.9238 26.9441 89.9157 24.7512 89.8654 24.647L89.6577 24.2115L89.1876 24.3146C88.7284 24.4155 88.1609 24.7435 87.6383 25.1077C88.3271 21.7542 87.6788 18.4117 87.646 18.245L87.5027 17.5287L86.826 17.7985C86.5997 17.8896 86.3591 18.0124 86.1142 18.1528C86.182 17.8007 86.2148 17.4475 86.2148 17.0954C86.2148 8.47528 82.6918 1.37451 82.5416 1.07723L82 0L81.4584 1.07723C81.3082 1.37451 77.7847 8.47528 77.7847 17.0954C77.7847 17.4475 77.8182 17.8007 77.8855 18.1528C77.6413 18.0124 77.4001 17.8896 77.1739 17.7985L76.4971 17.5287L76.3544 18.245C76.321 18.4117 75.6727 21.7542 76.3612 25.1077C75.8387 24.7435 75.2716 24.4155 74.812 24.3146L74.342 24.2115L74.1343 24.647C74.0846 24.7512 73.0763 26.9441 74.2465 30.2032C73.8178 30.0606 73.32 29.9355 72.783 29.873L72.1957 29.8061L72.1128 30.393C72.0914 30.5444 71.6719 33.6806 72.9076 37.1394C72.3611 36.8948 71.7191 36.6502 71.0639 36.4933L70.3924 36.3331L70.3201 37.022C70.3026 37.1899 69.9777 40.5028 71.3084 43.4076C70.8695 43.2902 70.3686 43.2024 69.8245 43.1871L69.1939 43.1695L69.2001 43.8025C69.2001 43.8025 69.2015 43.9385 69.2123 44.1766C69.2669 45.392 69.4922 47.9513 70.4107 49.9917C69.9154 49.8326 69.3872 49.7119 68.9149 49.7075L68.2779 49.701L68.3026 50.3394C68.3097 50.5215 68.4767 54.2172 70.3915 57.4841C69.801 57.3151 69.1741 57.1934 68.6705 57.2307L68.0041 57.2789L68.1167 57.9404C68.1527 58.151 68.9007 62.4325 70.8282 65.786C70.3259 65.6434 69.8015 65.5414 69.3736 65.5622L68.9254 65.5842L68.8146 66.0197C68.7818 66.148 68.1056 69.0824 72.0826 76.1185C71.6409 76.0088 71.1909 75.9276 70.8618 75.943L70.22 75.9726L70.2856 76.6132L70.2883 76.6374C70.3363 77.0279 70.8012 80.3024 73.3434 84.958C73.1208 84.9042 72.9083 84.8691 72.7358 84.8724L72.103 84.8812L72.1382 85.5152L72.14 85.5394C72.1694 85.9134 72.5065 89.1627 75.6041 95.1775C75.3771 95.1215 75.1398 95.0743 74.9005 95.0447L74.1651 94.9526L74.2203 95.6941C74.2301 95.8258 74.2465 95.964 74.2696 96.1077C74.273 96.1274 74.2771 96.1494 74.2838 96.1812C74.3038 96.2942 74.3253 96.4083 74.3523 96.5246C74.3565 96.5421 74.3614 96.5619 74.3692 96.5904C74.3986 96.711 74.4302 96.8328 74.4681 96.9633L74.4752 96.9864C74.8237 98.1634 75.49 99.5511 76.2615 101.156C77.9222 104.613 80.1953 109.344 80.7573 115.266C78.8974 112.579 77.1656 109.257 75.7247 106.494C74.8589 104.833 74.1114 103.399 73.451 102.307L72.9693 101.508L72.6376 101.983C71.6345 100.079 69.4022 95.9651 68.012 94.358L67.675 93.9686L67.2369 94.2384C67.1388 94.2988 66.8695 94.4732 66.5999 94.7299C65.5829 92.5085 63.2203 87.503 61.9653 86.1416L61.5436 85.6831L61.0977 86.1175C61.0743 86.1405 60.7456 86.463 60.4169 86.9534C59.4086 84.811 57.194 80.3013 55.3587 77.9274L54.9116 77.3493L54.4262 77.8956C54.4096 77.9143 54.2042 78.149 53.9873 78.5275C53.07 76.7986 51.3274 73.7797 49.7282 72.4973L49.2731 72.1332L48.8911 72.5741C48.7743 72.7091 48.3984 73.1577 48.0788 73.6985C46.9856 71.86 44.6788 68.252 42.5613 66.6976L42.1984 66.431L41.8387 66.702C41.7905 66.7382 40.9804 67.3569 40.4197 68.2751C39.3749 66.5166 37.1948 63.173 35.0089 61.8336L34.5357 61.544L34.2053 61.9905C34.1648 62.0453 33.4532 63.0172 33.0273 64.1855C31.79 62.6936 29.321 59.8623 27.3229 58.501L26.7652 58.1203L26.447 58.7171C26.4164 58.7741 25.8746 59.8009 25.619 61.0383C24.2033 59.6857 21.4586 57.1846 19.7057 56.3574L19.1156 56.0788L18.8811 56.6887C18.8694 56.7195 18.6777 57.2274 18.5823 57.9843C16.1854 56.375 9.50292 52.3644 2.17038 52.1549L0 52.0935L1.8239 53.2749C1.8989 53.3243 8.88038 57.857 12.1429 60.6686C11.8999 60.8079 11.6257 60.9659 11.3671 61.1162L10.6144 61.555L11.2854 62.1122C11.3057 62.1287 13.1227 63.6315 15.6836 65.3966C15.1836 65.5864 14.6185 65.82 14.2043 66.0438L13.5379 66.4036L14.0325 66.9784C14.1086 67.0673 15.83 69.0364 20.3805 71.9094C19.7618 72.1441 19.0472 72.4217 18.6356 72.6027L18.1143 72.8308L18.3086 73.3673C18.354 73.4934 19.4462 76.3181 26.0211 78.7403C25.5186 79.0803 24.8839 79.5082 24.2553 79.9228L23.6092 80.3506L24.1766 80.8783C24.2924 80.9858 26.8543 83.3257 31.8943 84.6146C31.3807 85.003 30.8539 85.4889 30.6158 85.9869L30.4194 86.3972L30.7569 86.7022C30.8495 86.7866 32.9144 88.6131 38.0594 90.1302C37.7973 90.3123 37.5868 90.4988 37.4831 90.6754L37.2178 91.1263L37.6228 91.4576C37.7214 91.5377 39.9338 93.3148 45.2874 95.3354C44.9803 95.5296 44.6956 95.76 44.5214 96.0156L44.1618 96.5443L44.7057 96.8778C44.8791 96.9842 48.6494 99.2802 53.2456 100.452C52.9478 100.687 52.6782 100.941 52.5386 101.175L52.2974 101.577L52.6255 101.913C52.7262 102.017 54.9641 104.245 60.9469 105.407C60.778 105.574 60.6268 105.768 60.5093 105.996L60.2247 106.549L60.7826 106.822C60.8244 106.843 64.7264 108.745 69.0704 110.313L68.7481 110.82L69.3641 111.118C70.7172 111.77 72.0731 112.485 73.3944 113.239C75.2409 114.295 77.0463 115.446 78.784 116.678C73.4828 115.456 65.0961 111.83 64.9972 111.786L64.3233 111.494L64.1639 112.212C64.1473 112.288 64.1365 112.366 64.1303 112.444C60.1449 110.532 56.8462 109.627 56.6964 109.586L55.9559 109.384L55.9326 110.123C53.0774 108.748 49.9095 108.534 49.7508 108.524L49.1426 108.487L49.1075 109.097C49.0956 109.302 49.1582 109.641 49.2503 110.011C45.8579 108.266 41.5973 108.139 41.3925 108.134L40.6891 108.116L40.7754 108.817C40.8074 109.077 40.9388 109.535 41.0845 109.989C36.4137 108.206 33.2537 109.001 33.1105 109.039L32.6267 109.166L32.6591 109.667C32.6688 109.819 32.7183 110.015 32.7871 110.224C28.8849 109.286 25.1487 110.123 24.9753 110.162L24.088 110.366L24.6172 111.11C24.6938 111.218 24.8886 111.615 25.1122 112.1C20.4729 111.106 18.2484 112.407 18.1485 112.467L16.9587 113.189L17.4258 113.323C16.9993 113.365 16.7104 113.43 16.6839 113.436L15.6083 113.68L16.1307 114.202C10.8582 115.296 7.57286 117.276 7.42636 117.365L6.19144 118.12L7.59276 118.476C10.067 119.105 13.3434 119.425 15.0285 119.558C14.8959 119.878 14.8574 120.137 14.8507 120.19L14.7703 120.815L15.3949 120.874C16.873 121.016 19.724 120.921 21.4251 120.844C20.954 121.604 20.6865 122.351 20.6696 122.398L20.4377 123.054L21.1166 123.198C24.0502 123.817 27.8224 123.367 29.7696 123.052C29.4485 123.808 29.3258 124.456 29.3183 124.497L29.201 125.132L29.8403 125.212C32.3402 125.522 35.9046 124.614 37.8934 124.014C37.5209 124.718 37.2521 125.267 37.2344 125.303L36.897 125.993L37.6439 126.165C40.2529 126.764 43.802 125.758 45.7334 125.086C45.6027 125.457 45.5332 125.711 45.5276 125.731L45.3042 126.551L46.1495 126.5C47.963 126.39 52.8873 124.558 54.9785 123.752C54.9694 124.424 55.1172 124.823 55.1411 124.884L55.335 125.371L55.8441 125.25C57.0982 124.953 61.2902 123.201 63.1766 122.4C63.1851 122.493 63.1957 122.554 63.199 122.571L63.3195 123.22L63.9538 123.047C64.3615 122.938 65.0596 122.731 65.9431 122.47C68.0962 121.835 71.3351 120.88 74.6139 120.041C72.9193 120.653 71.1943 121.237 69.6306 121.768C67.3057 122.556 65.2977 123.236 64.1556 123.746L62.4193 124.522L64.2822 124.899C64.2966 124.902 64.313 124.906 64.3311 124.909C62.2716 126.008 60.3476 127.502 60.237 127.589L59.2014 128.397L60.0817 128.582C58.6516 129.856 57.8169 131.29 57.77 131.371L57.2457 132.285H57.7748C56.4347 133.569 55.9215 134.936 55.8935 135.013L55.7016 135.539L56.1431 135.745C55.3313 136.822 55.1251 137.637 55.1153 137.679L54.8718 138.679L55.5703 138.49C54.5232 142.055 54.5248 144.62 54.5254 144.737L54.5386 147L55.6588 145.035C56.3938 143.747 61.9853 137.347 63.1374 136.474C63.5522 136.161 63.8872 135.852 64.1514 135.578C64.4264 136.13 64.7812 136.435 64.805 136.455L65.1627 136.755L65.5442 136.487C66.3618 135.91 68.3247 133.691 69.3962 132.321C69.7612 132.856 70.2222 133.178 70.301 133.231L70.7246 133.515L71.0767 133.146C72.878 131.257 75.4907 127.428 76.6654 125.61C76.8536 126.071 76.9645 126.458 76.9663 126.464L77.3319 127.752L78.0589 126.63C78.853 125.404 79.4127 124.037 79.9066 122.831C80.1539 122.228 80.3876 121.658 80.6045 121.232L80.7022 121.039C80.794 120.859 80.8836 120.683 80.9716 120.512C80.9079 125.838 80.7553 136.878 80.5594 139.684L80.5491 139.831L80.6068 139.966C80.6888 140.158 80.9887 140.606 82 140.606C83.0113 140.606 83.3109 140.158 83.3929 139.966L83.4509 139.831L83.441 139.684C83.2442 136.878 83.0922 125.838 83.0288 120.512C83.1163 120.683 83.2059 120.859 83.2978 121.039L83.3951 121.231C83.6127 121.658 83.8466 122.228 84.0937 122.831C84.5868 124.037 85.1466 125.404 85.9415 126.63L86.6685 127.752L87.0337 126.464C87.0359 126.458 87.1463 126.071 87.3344 125.61C88.5097 127.428 91.1217 131.257 92.9235 133.146L93.2755 133.515L93.6987 133.231C93.7774 133.178 94.2388 132.856 94.6039 132.321C95.6754 133.691 97.6379 135.91 98.4558 136.487L98.8373 136.755L99.1949 136.455C99.2189 136.435 99.5731 136.13 99.8487 135.578C100.113 135.852 100.448 136.161 100.862 136.474C102.015 137.347 107.606 143.747 108.342 145.035L109.461 147L109.474 144.737C109.475 144.62 109.477 142.055 108.43 138.49L109.128 138.679L108.885 137.679C108.875 137.637 108.669 136.822 107.857 135.745L108.298 135.539L108.107 135.013C108.078 134.936 107.565 133.569 106.225 132.285H106.754L106.23 131.371C106.183 131.29 105.348 129.856 103.918 128.582L104.798 128.397L103.763 127.589C103.652 127.502 101.728 126.008 99.6694 124.909C99.6868 124.906 99.7033 124.902 99.7175 124.899L101.581 124.522L99.8443 123.746C98.7018 123.236 96.6944 122.556 94.3689 121.768C92.8054 121.237 91.0812 120.653 89.3866 120.041C92.6644 120.88 95.9039 121.835 98.0567 122.47C98.9401 122.731 99.6387 122.938 100.047 123.047L100.681 123.22L100.801 122.571C100.804 122.554 100.815 122.493 100.824 122.4C102.71 123.201 106.902 124.953 108.156 125.25L108.665 125.371L108.859 124.884C108.883 124.823 109.03 124.424 109.022 123.752C111.113 124.558 116.037 126.39 117.85 126.5L118.696 126.551L118.473 125.731C118.467 125.711 118.397 125.459 118.267 125.086C120.196 125.758 123.746 126.764 126.357 126.165L127.103 125.993L126.765 125.303C126.748 125.267 126.479 124.718 126.106 124.014C128.095 124.614 131.659 125.522 134.16 125.212L134.799 125.132L134.682 124.497C134.675 124.456 134.552 123.808 134.231 123.052C136.178 123.367 139.95 123.817 142.883 123.198L143.562 123.054L143.331 122.398C143.313 122.351 143.046 121.604 142.575 120.844C144.276 120.92 147.127 121.016 148.605 120.874L149.23 120.815L149.149 120.19C149.143 120.137 149.104 119.878 148.971 119.558C150.657 119.425 153.933 119.105 156.407 118.476L157.808 118.12L156.574 117.365C156.428 117.276 153.142 115.296 147.869 114.202L148.392 113.68L147.316 113.436C147.289 113.43 147.001 113.365 146.574 113.323L147.041 113.189L145.852 112.467C145.751 112.407 143.526 111.106 138.888 112.1C139.111 111.615 139.306 111.218 139.383 111.11L139.912 110.366L139.025 110.162C138.851 110.123 135.115 109.287 131.213 110.224C131.282 110.014 131.331 109.818 131.341 109.666L131.373 109.166L130.889 109.039C130.746 109.001 127.587 108.206 122.916 109.989C123.061 109.535 123.192 109.077 123.224 108.817L123.311 108.116L122.607 108.134C122.403 108.139 118.142 108.266 114.75 110.011C114.842 109.641 114.905 109.302 114.893 109.097L114.857 108.487L114.249 108.524C114.09 108.534 110.923 108.748 108.067 110.123L108.044 109.384L107.304 109.586C107.154 109.627 103.855 110.532 99.8694 112.444C99.864 112.366 99.853 112.288 99.8355 112.212L99.677 111.494L99.0024 111.787C98.904 111.83 90.5171 115.456 85.2155 116.678C86.9539 115.446 88.759 114.295 90.6056 113.239C91.9264 112.485 93.2832 111.77 94.6357 111.118L95.2523 110.82L94.9298 110.313C99.2736 108.745 103.176 106.843 103.217 106.822L103.775 106.549L103.491 105.996C103.374 105.768 103.222 105.574 103.053 105.407C109.036 104.245 111.274 102.017 111.375 101.913L111.703 101.577L111.461 101.175C111.322 100.941 111.052 100.687 110.755 100.452C115.351 99.2802 119.121 96.9842 119.295 96.8778L119.838 96.5443L119.478 96.0156C119.305 95.76 119.02 95.5296 118.713 95.3354C124.066 93.3148 126.279 91.5377 126.377 91.4576L126.782 91.1263L126.517 90.6754C126.413 90.4988 126.202 90.3123 125.941 90.1302C131.085 88.6131 133.151 86.7866 133.243 86.7022L133.581 86.3972L133.384 85.9869C133.146 85.4889 132.619 85.003 132.106 84.6146C137.146 83.3257 139.707 80.9858 139.823 80.8783L140.391 80.3506L139.744 79.9228C139.116 79.5082 138.482 79.0803 137.979 78.7403C144.554 76.3181 145.646 73.4934 145.691 73.3684L145.886 72.8308L145.364 72.6027C144.953 72.4217 144.238 72.1441 143.619 71.9094C148.17 69.0364 149.892 67.0673 149.967 66.9784L150.462 66.4036L149.795 66.0438C149.381 65.82 148.817 65.5864 148.316 65.3966C150.877 63.6315 152.694 62.1287 152.715 62.1122L153.386 61.555L152.633 61.1162C152.375 60.9659 152.1 60.8079 151.857 60.6686C155.12 57.857 162.101 53.3243 162.176 53.2749L164 52.0935Z" fill="#224407"></path>
</svg><style>@media (prefers-color-scheme: light) { :root { filter: none; } }
@media (prefers-color-scheme: dark) { :root { filter: none; } }
</style></svg>